<svg xmlns="http://www.w3.org/2000/svg" version="1.1" xmlns:xlink="http://www.w3.org/1999/xlink" xmlns:svgjs="http://svgjs.com/svgjs" width="272" height="176"><svg width="272" height="176" viewBox="0 0 272 176" fill="none" xmlns="http://www.w3.org/2000/svg">
<path fill-rule="evenodd" clip-rule="evenodd" d="M41.5 175H271L261.733 156.829L252.466 138.658L244.809 125.81L235.291 105.253L223.94 97.1772L182.336 65.6076L129.237 1L118.217 53.1266L115.212 81.7595L100.685 94.2405L87.1596 128.013L69 156.829L41.5 175Z" fill="#C0C0C0"></path>
<path d="M29.5529 114.063L1 175H41.5L69 156.829L87.1596 128.013L100.685 94.2405L115.212 81.7595L118.217 53.1266L129.237 1L105 33L90.666 58.6329L80.6475 80.2911L29.5529 114.063Z" fill="#7B7B7B"></path>
<path d="M129.237 1L182.336 65.6076L223.94 97.1772L235.291 105.253L244.809 125.81L252.466 138.658L261.733 156.829L271 175H41.5M129.237 1L118.217 53.1266L115.212 81.7595L100.685 94.2405L87.1596 128.013L69 156.829L41.5 175M129.237 1L105 33L90.666 58.6329L80.6475 80.2911L29.5529 114.063L1 175H41.5" stroke="black"></path>
</svg><style>@media (prefers-color-scheme: light) { :root { filter: none; } }
</style></svg>